<svg width="111" height="15" viewBox="0 0 111 15" fill="none" xmlns="http://www.w3.org/2000/svg">
<path d="M85.4243 10.7124C85.4175 10.5726 85.4396 10.4328 85.4896 10.3018C85.5395 10.1708 85.6159 10.0513 85.7143 9.95076C85.8128 9.85017 85.931 9.77065 86.0618 9.71706C86.1926 9.6635 86.333 9.63703 86.4746 9.63929C87.0937 9.63929 87.5092 10.0778 87.5092 10.7124C87.5151 10.8516 87.4922 10.9905 87.4423 11.1208C87.3924 11.2511 87.3164 11.37 87.2189 11.4705C87.1214 11.571 87.0044 11.6509 86.8747 11.7055C86.7453 11.7602 86.6058 11.7883 86.465 11.7883C86.3241 11.7883 86.1849 11.7602 86.0553 11.7055C85.9259 11.6509 85.8088 11.571 85.7111 11.4705C85.6136 11.37 85.5376 11.2511 85.4877 11.1208C85.4378 10.9905 85.4152 10.8516 85.4208 10.7124H85.4243Z" fill="black"/>
<path d="M0 6.61966C0 7.92888 0.392448 9.20875 1.12771 10.2973C1.86297 11.3859 2.90804 12.2344 4.13074 12.7354C5.35342 13.2364 6.69885 13.3675 7.99685 13.1121C9.29488 12.8567 10.4872 12.2262 11.423 11.3004C12.3588 10.3747 12.9961 9.19516 13.2543 7.91109C13.5125 6.627 13.38 5.29602 12.8735 4.08642C12.367 2.87684 11.5094 1.84299 10.409 1.11561C9.30859 0.388235 8.01488 0 6.69143 0C4.91676 0 3.21476 0.697426 1.95987 1.93885C0.704988 3.18028 0 4.86402 0 6.61966Z" fill="#E07F1E"/>
<path d="M6.70345 0.368407C5.22059 0.368407 3.79846 0.951155 2.74991 1.98845C1.70137 3.02575 1.11231 4.43261 1.11231 5.89957C1.11215 6.19271 1.1358 6.4854 1.18302 6.77481C1.90562 4.90661 3.88029 3.56393 6.20504 3.56393C8.14521 3.56393 9.8422 4.50057 10.7718 5.89786H10.7838C11.3248 5.88376 11.8523 6.06579 12.267 6.40971C12.2825 6.23907 12.2911 6.06847 12.2911 5.89786C12.2911 4.43091 11.7021 3.02404 10.6535 1.98674C9.60498 0.949447 8.18285 0.366699 6.69999 0.366699" fill="#EFCA30"/>
<path d="M12.2705 6.40812C11.8558 6.06422 11.3283 5.88217 10.7873 5.89627H10.7718C9.12657 5.90652 7.39506 7.31917 6.90011 9.06279C6.63625 9.9909 6.77594 10.8269 7.21226 11.407C7.03979 11.4206 6.86735 11.4309 6.70351 11.4309C5.37419 11.43 4.08864 10.9607 3.07733 10.1072C2.06603 9.25369 1.3951 8.07173 1.18482 6.77322C0.988979 7.27505 0.888412 7.80831 0.888184 8.34623C0.894165 9.00238 1.04299 9.64952 1.32452 10.2436C1.60605 10.8378 2.01368 11.3649 2.51965 11.7891C3.14512 12.2864 3.85692 12.6668 4.6202 12.9117C5.86532 13.3134 7.20228 13.3446 8.46512 13.0012C9.72795 12.6579 10.8611 11.9552 11.7238 10.9804C12.1483 10.5002 12.5014 9.96249 12.7724 9.38354C12.812 9.27775 12.8465 9.17028 12.8776 9.06279C13.1949 7.95042 12.931 6.97283 12.2722 6.40641" fill="#D80028"/>
<path d="M48.5956 6.09772V11.5487C48.5958 11.562 48.5933 11.5752 48.5884 11.5875C48.5832 11.5998 48.5758 11.611 48.5662 11.6204C48.5569 11.6298 48.5455 11.6372 48.5331 11.6422C48.5205 11.6471 48.5072 11.6496 48.4939 11.6494H47.2055C47.1923 11.6494 47.1792 11.6468 47.1668 11.6417C47.1547 11.6366 47.1435 11.6291 47.1342 11.6198C47.1249 11.6104 47.1176 11.5993 47.1127 11.5871C47.1078 11.5749 47.1053 11.5619 47.1055 11.5487V6.57373C47.1055 5.00071 46.2329 4.07429 44.7325 4.07429C43.3045 4.07429 42.187 5.05358 42.187 6.60954V11.5487C42.1872 11.562 42.1847 11.5752 42.1798 11.5875C42.1746 11.5998 42.1672 11.611 42.1578 11.6204C42.1483 11.6298 42.1369 11.6372 42.1245 11.6422C42.1119 11.6471 42.0986 11.6496 42.0853 11.6494H40.7918C40.7783 11.6496 40.765 11.6471 40.7526 11.6422C40.7403 11.6372 40.7288 11.6298 40.7193 11.6204C40.7099 11.611 40.7023 11.5998 40.6974 11.5875C40.6922 11.5752 40.6899 11.562 40.6901 11.5487V6.57373C40.6901 5.00071 39.8175 4.07429 38.3169 4.07429C36.9271 4.07429 35.763 5.01777 35.763 6.60954V11.5487C35.7632 11.562 35.7607 11.5752 35.7555 11.5875C35.7506 11.5998 35.7432 11.611 35.7336 11.6204C35.724 11.6298 35.7128 11.6372 35.7003 11.6422C35.6879 11.6471 35.6746 11.6496 35.6611 11.6494H34.3832C34.3699 11.6496 34.3564 11.6471 34.344 11.6422C34.3316 11.6372 34.3202 11.6298 34.3107 11.6204C34.3013 11.611 34.2939 11.5998 34.2887 11.5875C34.2836 11.5752 34.2813 11.562 34.2815 11.5487V2.9602C34.2815 2.9335 34.2922 2.90791 34.3114 2.88903C34.3302 2.87016 34.3561 2.85954 34.3832 2.85954H35.6525C35.6793 2.85998 35.7049 2.87073 35.724 2.88952C35.7429 2.9083 35.7539 2.93364 35.7544 2.9602V3.69213C35.7546 3.71175 35.7609 3.73083 35.7721 3.74697C35.7835 3.76307 35.7994 3.77549 35.818 3.78262C35.8364 3.78975 35.8567 3.7913 35.8761 3.78703C35.8954 3.78276 35.9132 3.77288 35.9267 3.75867C36.6372 2.96191 37.6514 2.68042 38.5793 2.68042C39.9726 2.68042 41.0868 3.26731 41.6835 4.2466C41.6926 4.26107 41.7052 4.27298 41.7204 4.28124C41.7355 4.2895 41.7523 4.29382 41.7696 4.29382C41.7868 4.29382 41.8039 4.2895 41.819 4.28124C41.8339 4.27298 41.8468 4.26107 41.8559 4.2466C42.582 3.0677 43.8599 2.67871 44.986 2.67871C47.1211 2.67871 48.5854 4.04357 48.5854 6.09089" fill="black"/>
<path d="M59.0381 7.13139C59.0381 9.711 57.1411 11.5826 54.7266 11.5826C53.4762 11.5826 52.5227 11.1424 51.8551 10.4514C51.8413 10.437 51.8233 10.4271 51.8035 10.4229C51.7839 10.4187 51.7634 10.4206 51.7448 10.4281C51.7261 10.4357 51.7102 10.4486 51.6991 10.4653C51.6881 10.4819 51.6823 10.5015 51.6827 10.5214V14.8992C51.6823 14.9258 51.6713 14.9511 51.6524 14.9699C51.6335 14.9887 51.6079 14.9995 51.5811 14.9999H50.2943C50.2675 14.9995 50.2418 14.9887 50.2229 14.9699C50.2041 14.9511 50.1931 14.9258 50.1926 14.8992V2.95657C50.1926 2.92987 50.2034 2.90427 50.2225 2.8854C50.2416 2.86652 50.2675 2.8559 50.2943 2.8559H51.5741C51.5874 2.8559 51.6006 2.85851 51.613 2.86357C51.6254 2.86862 51.6366 2.87605 51.6459 2.8854C51.6554 2.89474 51.6629 2.90584 51.668 2.91805C51.6732 2.93026 51.6757 2.94334 51.6757 2.95657V3.73624C51.6755 3.75618 51.6811 3.77573 51.6923 3.79237C51.7033 3.80903 51.7193 3.82197 51.7378 3.82954C51.7564 3.83709 51.7769 3.83891 51.7968 3.83473C51.8164 3.83058 51.8343 3.82063 51.8483 3.80621C52.5157 3.11524 53.4695 2.67676 54.7196 2.67676C57.1341 2.67676 59.0311 4.55347 59.0311 7.12797L59.0381 7.13139ZM51.5776 7.12797C51.5776 8.88013 52.7951 10.1989 54.5403 10.1989C56.3321 10.1989 57.5032 8.82383 57.5032 7.12797C57.5032 5.43212 56.296 4.05699 54.5403 4.05699C52.7848 4.05699 51.5776 5.37923 51.5776 7.12797Z" fill="black"/>
<path d="M75.8301 4.66463C75.8236 4.67649 75.8147 4.6869 75.8038 4.69518C75.7931 4.70347 75.7807 4.70949 75.7674 4.71286C75.7541 4.71621 75.7404 4.71685 75.7268 4.71471C75.7133 4.71258 75.7002 4.70771 75.6888 4.70044C74.8712 4.22818 73.9434 3.9753 72.9968 3.96683C71.8155 3.96683 71.0513 4.45989 71.0513 5.23447C71.0513 5.9169 71.6791 6.23252 72.7242 6.35707L73.7244 6.48332C75.5613 6.72729 76.6426 7.49162 76.6426 8.90257C76.6426 10.5302 75.1697 11.5828 72.8156 11.5828C71.781 11.5828 70.3806 11.3423 69.2562 10.5421C69.2352 10.5268 69.221 10.5042 69.2161 10.4789C69.2114 10.4536 69.2163 10.4274 69.2303 10.4056L69.8114 9.48094C69.8189 9.46922 69.8287 9.45914 69.8403 9.45136C69.8518 9.44356 69.865 9.43821 69.8788 9.43564C69.8926 9.43308 69.9066 9.43336 69.9203 9.43645C69.9338 9.43954 69.9467 9.44541 69.9581 9.45364C70.5926 9.91941 71.4428 10.2964 72.8243 10.2964C74.2418 10.2964 75.1145 9.83751 75.1145 8.99298C75.1145 8.36344 74.5522 7.96934 73.3795 7.8243L72.3793 7.70658C70.4427 7.47286 69.5062 6.60958 69.5062 5.31805C69.5062 3.68192 70.8857 2.69238 72.9796 2.69238C74.3006 2.69238 75.5111 3.0336 76.346 3.56589C76.3674 3.5802 76.3828 3.60212 76.3884 3.62718C76.3942 3.65224 76.39 3.67853 76.377 3.70068L75.8301 4.66463Z" fill="black"/>
<path d="M83.4117 4.66463C83.4049 4.67654 83.3958 4.68697 83.3849 4.6953C83.3739 4.70361 83.3613 4.70961 83.348 4.71297C83.3345 4.71632 83.3208 4.71694 83.307 4.71478C83.2935 4.71263 83.2804 4.70776 83.2688 4.70044C82.4512 4.22818 81.5231 3.9753 80.5765 3.96683C79.3952 3.96683 78.6312 4.45989 78.6312 5.23447C78.6312 5.9169 79.259 6.23252 80.3042 6.35707L81.3043 6.48332C83.141 6.72729 84.2223 7.49162 84.2223 8.90257C84.2223 10.5302 82.7494 11.5828 80.3956 11.5828C79.3607 11.5828 77.9603 11.3423 76.8359 10.5421C76.8151 10.5268 76.8007 10.5042 76.796 10.4789C76.7911 10.4536 76.7962 10.4274 76.81 10.4056L77.393 9.48094C77.4002 9.46927 77.41 9.45923 77.4214 9.45145C77.4329 9.44368 77.4457 9.43832 77.4592 9.43576C77.473 9.4332 77.487 9.43345 77.5005 9.43654C77.514 9.43961 77.5266 9.44543 77.5378 9.45364C78.1725 9.91941 79.0228 10.2964 80.404 10.2964C81.8218 10.2964 82.6944 9.83751 82.6944 8.99298C82.6944 8.36344 82.1322 7.96934 80.9594 7.8243L79.959 7.70658C78.0224 7.47286 77.0859 6.60958 77.0859 5.31805C77.0859 3.68192 78.4657 2.69238 80.5593 2.69238C81.8803 2.69238 83.0911 3.0336 83.9257 3.56589C83.9473 3.5802 83.9625 3.60212 83.9683 3.62718C83.9742 3.65224 83.97 3.67853 83.9567 3.70068L83.4117 4.66463Z" fill="black"/>
<path d="M22.3871 9.33059C22.3779 9.32145 22.3671 9.3142 22.3551 9.30927C22.3431 9.3043 22.3302 9.30177 22.3172 9.30177C22.3042 9.30177 22.2914 9.3043 22.2794 9.30927C22.2674 9.3142 22.2565 9.32145 22.2474 9.33059C20.9712 10.5248 19.1672 10.489 17.9704 9.30329C16.7425 8.08854 16.7356 6.26302 18.0152 4.9988C19.2949 3.73457 21.0626 3.74653 22.2888 4.89133C22.2979 4.90044 22.3088 4.90769 22.3208 4.91265C22.3328 4.91759 22.3456 4.92013 22.3586 4.92013C22.3716 4.92013 22.3845 4.91759 22.3965 4.91265C22.4084 4.90769 22.4193 4.90044 22.4285 4.89133L23.2752 4.05363C23.2849 4.0441 23.2925 4.03282 23.2978 4.02038C23.303 4.00792 23.3057 3.99458 23.3057 3.9811C23.3057 3.96765 23.303 3.95431 23.2978 3.94185C23.2925 3.92941 23.2849 3.91813 23.2752 3.9086C21.4247 2.14962 18.7292 2.16668 16.9408 3.9359C15.1524 5.70513 15.1352 8.44513 16.9857 10.2758C18.8103 12.0808 21.5093 12.1184 23.3218 10.402C23.3316 10.3925 23.339 10.3812 23.3444 10.3688C23.3495 10.3563 23.3523 10.343 23.3523 10.3295C23.3523 10.316 23.3495 10.3027 23.3444 10.2902C23.339 10.2778 23.3316 10.2665 23.3218 10.257L22.3871 9.33059Z" fill="black"/>
<path d="M25.5411 7.12822C25.5675 7.12778 25.5927 7.11721 25.6113 7.09875C25.63 7.08029 25.6407 7.05539 25.6412 7.02927C25.6913 5.29418 26.9897 4.05726 28.685 4.05726C30.4219 4.05726 31.7308 5.34366 31.7308 7.12822C31.7308 8.8838 30.4701 10.1463 28.7834 10.1992C28.7571 10.1996 28.7321 10.2103 28.7137 10.2288C28.6953 10.2473 28.685 10.2722 28.685 10.2982V11.4822C28.685 11.4958 28.6878 11.5092 28.6932 11.5218C28.6986 11.5343 28.7063 11.5457 28.7161 11.5552C28.7258 11.5647 28.7375 11.5722 28.7501 11.5772C28.7629 11.5823 28.7767 11.5848 28.7902 11.5846C31.3549 11.5334 33.2484 9.6362 33.2484 7.13335C33.2484 4.59809 31.3031 2.68213 28.685 2.68213C26.0982 2.68213 24.1683 4.54349 24.1133 7.02585C24.1133 7.05318 24.124 7.07939 24.1434 7.09887C24.1627 7.11832 24.1891 7.12949 24.2166 7.12993L25.5411 7.12822Z" fill="black"/>
<path d="M68.2422 2.85922H66.9643C66.9373 2.85922 66.9114 2.86981 66.8923 2.88868C66.8734 2.90756 66.8627 2.93318 66.8627 2.95988V3.72421C66.0306 2.99747 64.9561 2.60172 63.8463 2.61354C61.2819 2.61354 59.345 4.53802 59.345 7.12787C59.345 9.68701 61.2266 11.5944 63.7358 11.649C63.7495 11.6492 63.7633 11.6468 63.7761 11.6417C63.7887 11.6367 63.8004 11.6292 63.8102 11.6197C63.82 11.6101 63.8277 11.5988 63.833 11.5862C63.8384 11.5737 63.8412 11.5602 63.8412 11.5467V10.2364C63.8407 10.2107 63.8302 10.1862 63.8118 10.1681C63.7934 10.15 63.7686 10.1396 63.7428 10.1391C61.987 10.0897 60.7369 8.80325 60.7369 7.12787C60.7369 5.40982 62.0372 4.1149 63.8412 4.1149C65.3828 4.1149 66.8573 5.18122 66.8573 6.39935V11.5484C66.8571 11.5616 66.8596 11.5748 66.8648 11.5872C66.8697 11.5995 66.8771 11.6107 66.8867 11.62C66.8962 11.6294 66.9074 11.6368 66.92 11.6418C66.9324 11.6468 66.9457 11.6493 66.9592 11.649H68.2371C68.2504 11.6493 68.2639 11.6468 68.2763 11.6418C68.2886 11.6368 68.3001 11.6294 68.3096 11.62C68.319 11.6107 68.3267 11.5995 68.3315 11.5872C68.3367 11.5748 68.339 11.5616 68.3388 11.5484V2.95988C68.3388 2.93318 68.3281 2.90756 68.3089 2.88868C68.29 2.86981 68.2642 2.85922 68.2371 2.85922" fill="black"/>
<path d="M29.644 8.04944L30.0768 6.45252C30.0982 6.37457 30.0985 6.29239 30.0775 6.21432C30.0565 6.13628 30.015 6.06508 29.9572 6.00794C29.8993 5.95083 29.8275 5.9098 29.7485 5.88901C29.6696 5.86821 29.5866 5.86838 29.5078 5.88951L27.8936 6.31604C27.8146 6.33693 27.7425 6.37805 27.6845 6.43526C27.6266 6.49249 27.5851 6.56378 27.5639 6.64196C27.5427 6.72014 27.5429 6.80246 27.5641 6.88062C27.5853 6.95878 27.6269 7.03004 27.6849 7.08721L28.8663 8.25587C28.9241 8.31275 28.9959 8.3536 29.0748 8.37434C29.1536 8.39509 29.2364 8.395 29.3152 8.37411C29.394 8.3532 29.4658 8.31222 29.5234 8.25524C29.5813 8.19827 29.6228 8.12731 29.644 8.04944Z" fill="#EFCA30"/>
<path d="M110.683 8.48602C109.632 8.48602 109.15 7.95199 109.15 6.91469V0.511719H105.931V5.26148C105.562 4.47527 104.973 3.80992 104.233 3.3437C103.494 2.87745 102.636 2.62976 101.76 2.62976C100.883 2.62976 100.025 2.87745 99.2858 3.3437C98.5468 3.80992 97.9575 4.47527 97.5879 5.26148V2.72964H94.4111V7.19791C94.4111 8.00318 93.9834 8.55084 93.2642 8.55084C92.5451 8.55084 92.1174 8.00318 92.1174 7.19791V2.72964H88.908V7.23885C88.908 9.99931 90.6205 11.7344 93.2729 11.7344C95.4029 11.7344 96.9221 10.5657 97.4118 8.67197C97.7227 9.56041 98.304 10.3318 99.0759 10.8803C99.8477 11.4288 100.772 11.7274 101.723 11.735C102.673 11.7427 103.602 11.4591 104.383 10.9231C105.164 10.3872 105.758 9.62523 106.083 8.74192C106.557 10.7688 108.106 11.6662 110.186 11.6662H111V8.48602H110.683ZM101.76 8.55426C101.487 8.55426 101.22 8.4742 100.993 8.32423C100.766 8.17425 100.589 7.96109 100.485 7.71169C100.381 7.4623 100.353 7.18787 100.406 6.92311C100.46 6.65835 100.591 6.41514 100.784 6.22427C100.977 6.03338 101.223 5.90339 101.49 5.85073C101.758 5.79806 102.036 5.82509 102.288 5.9284C102.54 6.03169 102.755 6.20664 102.907 6.43109C103.058 6.65556 103.139 6.91944 103.139 7.18937C103.139 7.55138 102.994 7.89853 102.735 8.15449C102.477 8.41046 102.126 8.55426 101.76 8.55426Z" fill="black"/>
</svg>
